<?xml version="1.0" encoding="utf-8"?>
<!-- Generator: Adobe Illustrator 22.0.1, SVG Export Plug-In . SVG Version: 6.00 Build 0)  -->
<svg version="1.1" id="Capa_1" xmlns="http://www.w3.org/2000/svg" xmlns:xlink="http://www.w3.org/1999/xlink" x="0px" y="0px"
	 viewBox="0 0 152 53" style="enable-background:new 0 0 152 53;" xml:space="preserve">
<style type="text/css">
	.st0{fill:#FFFFFF;}
</style>
<g>
	<g>
		<g>
			<path class="st0" d="M55.5,34.8v-1c-0.9-0.4-2.1-0.7-3.4-0.7c-2.3,0-3.7,0.9-3.7,2.7v0.1c0,1.5,1.2,2.4,2.9,2.4
				C53.8,38.2,55.5,36.7,55.5,34.8 M43.1,36L43.1,36c0-4.3,3.2-6.3,7.7-6.3c1.9,0,3.3,0.3,4.6,0.8v-0.3c0-2.3-1.4-3.5-4.1-3.5
				c-2.1,0-3.5,0.4-5.2,1l-1.3-4.2c2.1-0.9,4.1-1.6,7.4-1.6c2.9,0,5.1,0.8,6.4,2.2c1.4,1.4,2.1,3.6,2.1,6.2v11.3h-5.2v-2.1
				C54.1,41,52.3,42,49.6,42C46.1,42,43.1,39.9,43.1,36"/>
			<path class="st0" d="M65.9,22.2h5.4V25c1.2-1.6,2.8-3.1,5.6-3.1c4.1,0,6.4,2.8,6.4,7.2v12.6h-5.4V30.8c0-2.6-1.2-3.9-3.3-3.9
				c-2.1,0-3.4,1.3-3.4,3.9v10.8h-5.4V22.2z"/>
			<path class="st0" d="M88.6,22.2h5.4V25c1.2-1.6,2.8-3.1,5.6-3.1c4.1,0,6.4,2.8,6.4,7.2v12.6h-5.4V30.8c0-2.6-1.2-3.9-3.3-3.9
				c-2.1,0-3.4,1.3-3.4,3.9v10.8h-5.4V22.2z"/>
			<path class="st0" d="M123.7,30.4c-0.3-2.5-1.7-4.1-4-4.1c-2.2,0-3.7,1.6-4.1,4.1H123.7z M110.3,32L110.3,32
				c0-5.6,3.9-10.2,9.4-10.2c6.3,0,9.2,5,9.2,10.5c0,0.4,0,0.9-0.1,1.5h-13.2c0.5,2.5,2.2,3.8,4.6,3.8c1.8,0,3.1-0.6,4.6-2l3.1,2.8
				c-1.8,2.2-4.3,3.6-7.8,3.6C114.6,42,110.3,37.9,110.3,32"/>
			<path class="st0" d="M133.6,22.2h5.4v3.9c1.1-2.7,2.9-4.4,6.1-4.3v5.8h-0.3c-3.6,0-5.8,2.2-5.8,6.8v7.2h-5.4V22.2z"/>
			<path class="st0" d="M8.2,11.5c-1.8,0-3.3,1.5-3.3,3.4v23.2c0,1.9,1.5,3.4,3.3,3.4h25.3V14.9c0-1.9-1.5-3.4-3.3-3.4H8.2z
				 M37.8,46H8.2c-4.2,0-7.7-3.5-7.7-7.9V14.9C0.5,10.6,3.9,7,8.2,7h22c4.2,0,7.7,3.5,7.7,7.9V46z"/>
			<polygon class="st0" points="18.9,23.5 11.3,23.5 11.3,18.4 31.9,18.4 31.9,23.5 24.3,23.5 24.3,43.7 18.9,43.7 			"/>
		</g>
	</g>
	<g>
		<path class="st0" d="M149.4,41.9c-1,0-1.9,0.9-1.9,1.9c0,1.1,0.8,1.9,1.9,1.9c1,0,1.9-0.9,1.9-1.9
			C151.2,42.7,150.4,41.9,149.4,41.9 M149.4,46c-1.2,0-2.1-1-2.1-2.2s1-2.2,2.1-2.2c1.2,0,2.1,1,2.1,2.2S150.5,46,149.4,46"/>
		<path class="st0" d="M149.5,43h-0.6v0.8h0.6c0.3,0,0.5-0.2,0.5-0.4C150,43.1,149.8,43,149.5,43 M150,45l-0.6-0.8h-0.5V45h-0.4
			v-2.4h1c0.5,0,0.9,0.3,0.9,0.8c0,0.4-0.2,0.6-0.6,0.7l0.6,0.9H150z"/>
	</g>
</g>
</svg>
